<?xml version="1.0" encoding="utf-8"?>
<!-- Generator: Adobe Illustrator 27.5.0, SVG Export Plug-In . SVG Version: 6.00 Build 0)  -->
<svg version="1.1" xmlns="http://www.w3.org/2000/svg" xmlns:xlink="http://www.w3.org/1999/xlink" x="0px" y="0px"
	 viewBox="0 0 500 500" style="enable-background:new 0 0 500 500;" xml:space="preserve">
<g id="BACKGROUND">
	<g>
		<g>
			<rect style="fill:#F2F2F2;" width="500" height="500"/>
		</g>
		<g style="opacity:0.1;">
			<path style="fill:#ED562B;" d="M205.875,86.5c64.923,0,121.087,37.496,148.02,92.014c14.898,30.158,37.176,56.137,65.238,74.683
				c24.096,15.925,39.992,43.257,39.992,74.302c0,49.153-39.847,89-89,89c-8.45,0-16.625-1.178-24.37-3.378
				c-32.811-9.322-67.497-9.404-100.634-1.318c-12.578,3.069-25.722,4.697-39.245,4.697c-91.5,0-165.604-74.479-164.996-166.119
				C41.481,159.509,115.001,86.5,205.875,86.5z"/>
		</g>
	</g>
</g>
<g id="OBJECTS">
	<g>
		<g>
			<g>
				<g>
					<path style="fill:#0C2647;" d="M239.608,416.213l-24.448-64.93c-5.875-15.602-21.022-26.084-37.694-26.084
						c-16.671,0-31.819,10.482-37.694,26.084l-24.448,64.93l-2.34-0.881l24.448-64.93c3.079-8.178,8.505-15.129,15.691-20.102
						c7.186-4.973,15.603-7.601,24.342-7.601s17.156,2.628,24.342,7.601c7.186,4.973,12.612,11.924,15.691,20.102l24.448,64.93
						L239.608,416.213z"/>
				</g>
				<g>
					<g>
						
							<rect x="125.171" y="345.149" transform="matrix(0.7959 -0.6054 0.6054 0.7959 -177.0379 167.5866)" style="fill:#0C2647;" width="69.792" height="2.5"/>
					</g>
					<g>
						
							<rect x="193.616" y="311.502" transform="matrix(0.6054 -0.7959 0.7959 0.6054 -198.8115 291.7834)" style="fill:#0C2647;" width="2.5" height="69.792"/>
					</g>
				</g>
			</g>
			<g>
				<path style="fill:#FED74B;" d="M230.297,318.015c-7.41,6.902-17.84,7.732-27.41,8.682c-11.322,1.125-22.715,1.237-34.072,0.432
					c-1.388-0.098-2.788-0.188-4.195-0.285c-10.085-0.675-20.575-1.54-29.403-6.72c-11.022-6.467-14.802-18.598-16.16-30.72
					c-1.14-10.163-1.38-20.68-1.222-30.86c0.167-10.888,1.755-21.978,5.407-32.295c1.473-4.165,3.283-8.205,5.47-12.053
					c6.64-11.682,16.383-24.423,31.38-22.938c6.6,0.653,12.89,4.053,17.31,9.763c5.973,7.707,8.788,17.065,11.645,26.222
					c3.045,9.765,7.913,18.952,14.253,26.978c8.302,10.51,20.035,17.712,27.612,28.86
					C238.06,293.592,240.53,308.485,230.297,318.015z"/>
			</g>
			<g style="opacity:0.15;">
				<path style="fill:#0C2647;" d="M230.297,318.015c-7.41,6.902-17.84,7.732-27.41,8.682c-11.322,1.125-22.715,1.237-34.072,0.432
					c-1.388-0.098-2.788-0.188-4.195-0.285c-4.105-6.133-6.22-14.603-12.228-19.105c-4.37-3.277-10.462-4.137-13.997-8.302
					c-7.338-8.642,1.915-23.52-4.643-32.767c-3.112-4.388-9.437-6.813-10.13-12.148c-0.612-4.73,3.735-8.663,4.585-13.353
					c0.7-3.857-1.037-7.708-2.922-11.143c-0.683-1.245-1.398-2.497-2.043-3.777c1.473-4.165,3.283-8.205,5.47-12.053
					c6.64-11.682,16.383-24.423,31.38-22.938c6.6,0.653,12.89,4.053,17.31,9.763c5.973,7.707,8.788,17.065,11.645,26.222
					c3.045,9.765,7.913,18.952,14.253,26.978c8.302,10.51,20.035,17.712,27.612,28.86
					C238.06,293.592,240.53,308.485,230.297,318.015z"/>
			</g>
		</g>
		<g>
			<g>
				<path style="fill:#0C2647;" d="M170.665,151.261h-1.75v-10.399c0-11.132,9.056-20.188,20.188-20.188
					c11.131,0,20.188,9.056,20.188,20.188h-1.75c0-10.167-8.271-18.438-18.438-18.438c-10.167,0-18.438,8.271-18.438,18.438V151.261
					z"/>
			</g>
			<g>
				<path style="fill:#72C9B9;" d="M208.378,156.448L208.378,156.448c-3.143,0-5.714-2.571-5.714-5.714v-5.257
					c0-3.143,2.571-5.714,5.714-5.714h0c3.143,0,5.714,2.571,5.714,5.714v5.257C214.092,153.877,211.52,156.448,208.378,156.448z"/>
			</g>
			<g>
				<path style="fill:#EF8F8F;" d="M246.361,196.307c1.465,0.799,3.067,1.545,4.752,2.127c1.008,0.348,1.626,1.369,1.479,2.426
					c-3.099,22.242-13.693,40.56-31.521,50.814c-7.209,4.146-15.033,5.866-22.903,2.67c-8.23-3.342-13.598-10.83-16.241-19.036
					c-2.944-9.142-5.333-19.452-4.044-28.969c0.716-5.288,1.763-10.087,6.096-12.994c3.216-2.157,7.305-3.034,11.104-2.043
					c9.451,2.464,10.286,12.429,14.121,19.706c2.513,4.769,7.387,6.91,12.34,5.544c4.506-1.243,17.691-14.935,22.093-19.794
					C244.328,195.991,245.453,195.812,246.361,196.307z"/>
			</g>
			<g>
				<path style="fill:#60BAA8;" d="M211.391,255.754c10.31,7.034,21.287,13.722,32.804,18.55c10.03,4.205,20.692,7.62,29.766,13.764
					c9.372,6.346,17.04,15.552,21.07,26.17c4.754,12.525,4.068,27.426-1.813,39.414c-5.881,11.988-16.839,20.821-28.984,23.362
					L211.391,255.754z"/>
			</g>
			<g>
				<path style="fill:#ED562B;" d="M248.87,394.616c-0.536-0.632-1.531-0.562-1.97,0.14c-0.832,1.329-1.598,2.697-2.094,4.18
					c-0.671,2.003-0.804,4.271,0.092,6.185c0.87,1.857,2.58,3.16,4.263,4.331c3.701,2.576,7.585,4.888,11.613,6.914
					c1.044,0.525,2.158-0.58,1.647-1.631C259.077,407.864,253.66,400.264,248.87,394.616z"/>
			</g>
			<g>
				<path style="fill:#ED562B;" d="M256.719,371.697c-0.15-0.815-1.047-1.251-1.778-0.861c-1.383,0.737-2.73,1.542-3.898,2.579
					c-1.58,1.402-2.826,3.302-3.003,5.408c-0.172,2.043,0.661,4.025,1.536,5.88c1.924,4.078,4.139,8.019,6.621,11.783
					c0.643,0.975,2.16,0.573,2.241-0.593C258.963,388.27,258.056,378.981,256.719,371.697z"/>
			</g>
			<g>
				<path style="fill:#FED74B;" d="M188.04,170.43c-0.013,0.298-0.025,0.595-0.038,0.888c-0.005,0.117-0.01,0.232-0.012,0.35
					c-0.005,0.128-0.008,0.255-0.013,0.385c-0.03,1.467-0.092,4.4-0.092,4.4c-0.005,0.167-0.008,0.495-0.008,0.95
					c-0.002,0.38-0.002,0.85-0.002,1.393c0.002,1.565,0.012,3.743,0.022,6.148c0.028,7.64,0.088,17.597,0.088,17.597
					s-3.573,1.303-5.35,2.31c-1.778,1.01-3.738,1.28-5.67,1.272c-5.705-0.04-11.433-2.51-16.243-7.003
					c-0.327-0.305-0.657-0.635-0.847-1.112c-0.408-0.99,0.232-3.24,0.232-3.24l3.528-18.342l0.372-1.948l3.813-18.66
					c0,0,3.532-0.135,7.172,0.21c2.428,0.23,4.805,0.645,6.003,1.375c0.092,0.06,0.18,0.12,0.255,0.18
					c0.972,0.755,1.87,1.652,2.727,2.643c0,0.002,0.003,0.005,0.005,0.007c0.153,0.178,0.303,0.357,0.453,0.54
					c0.77,0.938,1.502,1.938,2.217,2.95c0.17,0.235,0.323,0.447,0.47,0.65c0.525,0.713,0.893,1.29,0.97,2.445
					C188.165,167.988,188.1,169.22,188.04,170.43z"/>
			</g>
			<g style="opacity:0.15;">
				<path style="fill:#0C2647;" d="M188.04,170.43c-0.013,0.298-0.025,0.595-0.038,0.888c-0.005,0.117-0.01,0.232-0.012,0.35
					c-0.005,0.128-0.008,0.255-0.013,0.385c-0.03,1.467-0.092,4.4-0.092,4.4c-0.005,0.167-0.008,0.495-0.008,0.95
					c-1.46-1.262-2.792-2.673-3.96-4.21c-3.012-3.958-4.94-8.732-5.52-13.67c1.875,0.212,3.768,0.36,5.58,0.702
					c0,0.002,0.003,0.005,0.005,0.007c0.153,0.178,0.303,0.357,0.453,0.54c0.77,0.938,1.502,1.938,2.217,2.95
					c0.17,0.235,0.323,0.447,0.47,0.65c0.525,0.713,0.893,1.29,0.97,2.445C188.165,167.988,188.1,169.22,188.04,170.43z"/>
			</g>
			<g>
				<path style="fill:#FED74B;" d="M178.122,160.831c0.694,0.891,1.403,1.78,2.139,2.643c1.981,2.338,4.149,4.506,6.708,6.171
					c3.509,2.277,7.884,3.513,11.939,2.49c0.419-0.106,0.825-0.234,1.221-0.381c4.894-1.831,8.135-6.82,9.219-11.785
					c0.031-0.14,0.059-0.279,0.085-0.418c0.57-2.842,0.683-5.973,0.379-9.119c-0.216-2.246-0.644-4.5-1.265-6.662
					c-0.835-2.921-2.027-5.673-3.531-8.008c-4.982-7.74-15.38-11.059-23.215-6.22c-6.955,4.295-10.612,12.069-12.736,20.314
					c-1.41,5.457-2.145,11.12-2.722,16.118C165.219,175.689,178.122,160.831,178.122,160.831z"/>
			</g>
			<g>
				<path style="fill:#ED562B;" d="M187.475,154.011c-0.093,2.433-2.14,4.331-4.573,4.238c-2.433-0.093-4.331-2.14-4.238-4.574
					c0.093-2.433,2.14-4.331,4.574-4.238C185.67,149.53,187.567,151.578,187.475,154.011z"/>
			</g>
			<g>
				<path style="fill:#ED562B;" d="M209.434,159.55c-0.232,0.025-0.468,0.035-0.709,0.025c-2.549-0.097-4.537-2.242-4.44-4.791
					c0.097-2.549,2.242-4.537,4.791-4.44c0.252,0.01,0.499,0.04,0.736,0.087C210.115,153.578,210.004,156.708,209.434,159.55z"/>
			</g>
			<g>
				<path style="fill:#0C2647;" d="M194.523,152.56c-0.046,0-0.092-0.001-0.138-0.003l0.078-1.748
					c0.45,0.021,0.852-0.182,1.103-0.554c0.253-0.375,0.291-0.827,0.103-1.24c-0.519-1.14-1.017-2.436-1.146-4.187l1.745-0.129
					c0.103,1.395,0.471,2.444,0.993,3.59c0.44,0.966,0.348,2.066-0.245,2.944C196.451,152.071,195.527,152.56,194.523,152.56z"/>
			</g>
			<g>
				<path style="fill:#0C2647;" d="M191.177,145.881c-0.022,0.579-0.51,1.031-1.089,1.009c-0.579-0.022-1.031-0.51-1.009-1.089
					c0.022-0.579,0.51-1.031,1.089-1.009C190.747,144.814,191.199,145.302,191.177,145.881z"/>
			</g>
			<g>
				<path style="fill:#0C2647;" d="M201.739,144.392c-0.022,0.579-0.51,1.031-1.089,1.009c-0.579-0.022-1.031-0.51-1.009-1.089
					c0.022-0.579,0.51-1.031,1.089-1.009C201.309,143.325,201.761,143.813,201.739,144.392z"/>
			</g>
			<g>
				<path style="fill:#ED562B;" d="M199.529,154.065c-2.365,0.839-4.993,0.929-7.409,0.251c-0.454-0.127-0.908,0.214-0.908,0.686
					c0,0.631,0.056,1.263,0.26,1.844c0.462,1.311,1.612,2.51,2.98,2.938c1.451,0.453,3.109,0.287,4.272-0.663
					c1.38-1.127,1.78-2.667,1.76-4.398C200.479,154.234,199.988,153.902,199.529,154.065z"/>
			</g>
			<g>
				<path style="fill:#F6A4A4;" d="M220.457,262.715c-21.65,10.188-44.93,16.915-68.68,19.815c-0.255-0.462-0.507-0.925-0.755-1.392
					c-9.452-17.76-13.94-38.148-12.77-58.235c0.755-12.923,4.108-26.283,12.813-35.863c8.705-9.58,23.757-14.165,35.122-7.967
					c6.343,3.463,10.763,9.695,13.71,16.293c2.945,6.597,4.62,13.677,6.878,20.542C211.845,231.31,210.975,249.887,220.457,262.715z
					"/>
			</g>
			<g>
				<path style="fill:#72C9B9;" d="M278.875,375.085c-3.56,9.203-9.383,17.393-17.12,23.515c-0.805,0.637-1.63,1.253-2.473,1.845
					c-0.675,0.475-1.555,0.542-2.293,0.17c-3.435-1.727-6.902-3.628-10.345-5.402c-1.32-0.68-1.625-2.43-0.615-3.517
					c1.995-2.148,3.68-4.557,5.045-7.145c5.815-11.01,5.827-25.21-0.915-35.783c-5.45-8.545-14.353-14.33-23.613-18.452
					c-9.257-4.117-19.087-6.828-28.415-10.795c-17.477-7.432-34.497-17.54-44.415-33.64c-0.275-0.443-0.542-0.89-0.805-1.342
					c-0.387-0.665-0.765-1.335-1.135-2.008c23.75-2.9,47.03-9.628,68.68-19.815c0.57,0.777,1.183,1.535,1.838,2.268
					c2.375,2.665,4.865,5.227,7.462,7.68C240.33,282.635,302.388,314.283,278.875,375.085z"/>
			</g>
			<g>
				<path style="fill:#FED74B;" d="M206.319,223.707c1.743-3.546,4.307-6.684,7.429-9.106c0.455-0.353,1.097,0.045,0.992,0.611
					c-0.129,0.694-0.374,1.09-0.918,1.877c1.888-1.948,3.342-3.199,7.532-5.359c0.776-0.4,1.732-0.335,2.404,0.223
					c0.982,0.814,0.499,1.969-0.016,2.868c-3.446,6.014-8.747,10.948-14.993,13.955L206.319,223.707z"/>
			</g>
			<g>
				<path style="fill:#EF8F8F;" d="M210.197,230.035c-3.015,3.542-6.21,6.768-9.565,9.65c-12.815,11.008-27.955,16.983-44.21,16.255
					c-8.292-0.37-15.805-3.115-20.72-10.025c-5.14-7.225-5.65-16.407-3.477-24.735c2.415-9.265,5.92-19.21,12.09-26.532
					c0.007-0.01,0.015-0.023,0.025-0.033c3.437-4.07,8.212-6.71,13.42-6.835c3.865-0.095,7.777,1.36,10.447,4.228
					c6.638,7.14,0.68,15.14,0.01,23.322c-0.44,5.363,2.518,9.777,7.423,11.28c4.452,1.365,22.832-3.083,29.177-4.822
					c1.003-0.275,2.07,0.162,2.573,1.072c0.807,1.458,1.755,2.943,2.862,4.335C210.915,228.03,210.887,229.223,210.197,230.035z"/>
			</g>
			<g>
				<path style="fill:#ED562B;" d="M170.562,148.951c8.482-1.572,19.105-7.113,23.744-13.556c3.475,3.206,7.797,5.401,12.395,5.596
					c1.525,0.064,2.639-1.427,2.187-2.885c-1.813-5.856-7.293-10.75-13.227-12.268c-6.845-1.751-14.391,0.478-19.742,5.092
					c-4.73,4.079-7.406,8.894-7.964,15.634C167.834,148.025,169.12,149.218,170.562,148.951z"/>
			</g>
			<g>
				<circle style="fill:#ED562B;" cx="175.335" cy="128.324" r="8.988"/>
			</g>
			<g>
				<path style="fill:#0C2647;" d="M191.781,171.81h-5.898c-9.353,0-16.962-7.609-16.962-16.962h1.75
					c0,8.388,6.824,15.212,15.212,15.212h5.898V171.81z"/>
			</g>
			<g>
				<path style="fill:#0C2647;" d="M170.665,151.261h-1.75v-10.399c0-11.132,9.056-20.188,20.188-20.188v1.75
					c-10.167,0-18.438,8.271-18.438,18.438V151.261z"/>
			</g>
			<g>
				<path style="fill:#72C9B9;" d="M194.082,170.54c0.173,1.187-0.648,2.289-1.835,2.462c-1.186,0.173-2.289-0.648-2.462-1.835
					c-0.173-1.187,0.648-2.289,1.835-2.462C192.806,168.532,193.909,169.353,194.082,170.54z"/>
			</g>
			<g>
				<path style="fill:#72C9B9;" d="M169.917,157.215L169.917,157.215c-3.143,0-5.714-2.571-5.714-5.714v-5.257
					c0-3.143,2.571-5.714,5.714-5.714h0c3.142,0,5.714,2.571,5.714,5.714v5.257C175.631,154.643,173.059,157.215,169.917,157.215z"
					/>
			</g>
			<g style="opacity:0.15;">
				<path style="fill:#0C2647;" d="M200.632,239.685c-12.815,11.008-27.955,16.983-44.21,16.255
					c-8.292-0.37-15.805-3.115-20.72-10.025c-5.14-7.225-5.65-16.407-3.477-24.735c2.415-9.265,5.92-19.21,12.09-26.532
					c1.915,1.438,3.322,3.81,3.657,6.22c0.598,4.308-3.302,8.523-4.722,12.633c-2.133,6.175,3.185,11.253,2.5,17.75
					c-0.338,3.212-1.605,5.21-2.25,8.25c-0.53,2.503,0.79,5.56,3.25,6.5c7.245,2.768,13.285-6.845,20.865-5.217
					c3.86,0.825,6.745,4.712,10.69,4.772c4.69,0.073,7.572-5.097,11.772-7.19c3.238-1.613,7.39-1.185,10.235,1.052
					C200.422,239.503,200.527,239.59,200.632,239.685z"/>
			</g>
			<g style="opacity:0.15;">
				<path style="fill:#0C2647;" d="M271.065,368.99c-0.4,6.363-4.707,12.318-10.625,14.69c-2.955,1.182-6.238,1.443-9.365,0.87
					c5.815-11.01,5.827-25.21-0.915-35.783c-5.45-8.545-14.353-14.33-23.613-18.452c-9.257-4.117-19.087-6.828-28.415-10.795
					c-17.477-7.432-34.497-17.54-44.415-33.64c7.05-4.005,16.69-3.33,22.873,2.02c5.57,4.82,8.782,12.943,15.892,14.865
					c4.59,1.242,9.7-0.56,14.135,1.157c5.813,2.25,7.9,9.323,12.308,13.733c6.377,6.38,18.21,3.652,26.325,7.595
					c8.835,4.293,7.928,15.245,13.25,23.5C262.397,354.79,271.515,361.815,271.065,368.99z"/>
			</g>
		</g>
		<g>
			<g>
				<path style="fill:#0C2647;" d="M78.404,412.1V256.319c0-0.219,0.177-0.396,0.396-0.396h6.554c0.219,0,0.396,0.177,0.396,0.396
					V412.1c0,2.029-1.645,3.673-3.673,3.673l0,0C80.048,415.773,78.404,414.129,78.404,412.1z"/>
			</g>
			<g>
				<path style="fill:#0C2647;" d="M359.029,412.1V256.319c0-0.219,0.177-0.396,0.396-0.396h6.554c0.219,0,0.396,0.177,0.396,0.396
					V412.1c0,2.029-1.645,3.673-3.673,3.673l0,0C360.673,415.773,359.029,414.129,359.029,412.1z"/>
			</g>
			<g>
				<path style="fill:#ED562B;" d="M375.847,268.72H68.943c-3.534,0-6.399-2.865-6.399-6.398l0,0c0-3.534,2.865-6.398,6.399-6.398
					h306.904c3.534,0,6.398,2.865,6.398,6.398l0,0C382.245,265.855,379.38,268.72,375.847,268.72z"/>
			</g>
		</g>
		<g>
			<g>
				<g>
					<path style="fill:#F6A4A4;" d="M389.062,367c-2.306-8.69-6.972-16.742-13.366-23.063c-5.048-4.99-11.335-9.18-14.127-15.706
						c-0.897-2.097-1.316-4.717,0.092-6.51c1.19-1.515,3.415-2.218,5.263-1.494c9.406,3.684,24.412,27.499,25.101,42.871
						C390.774,364.69,390.313,365.407,389.062,367z"/>
				</g>
				<g>
					<g>
						<path style="fill:#72C9B9;" d="M407.904,364.162c1.387-23.686,21.51-89.941,21.51-89.941c0.357-1.869-1.63-3.313-3.293-2.388
							c-1.44,0.802-2.767,1.776-3.971,2.894c-1.589,1.475-4.144,0.085-3.743-2.046c2.339-12.437,5.832-24.486,9.992-36.51
							c0.621-1.796-1.117-3.497-2.902-2.845c-2.508,0.915-4.861,2.204-6.989,3.818c-1.445,1.097-3.535,0.134-3.607-1.679
							c-0.363-9.097-2.017-18.245-5.522-26.581c-0.845-2.01-3.784-1.758-4.26,0.37c-1.818,8.135-2.599,16.74-2.992,25.111
							c-0.091,1.939-2.423,2.833-3.82,1.485c-1.493-1.44-3.214-2.595-5.124-3.522c-1.841-0.894-3.829,0.947-3.068,2.846
							c4.752,11.86,7.471,24.826,8.085,37.62c0.093,1.947-2.165,3.057-3.678,1.828c-0.799-0.649-1.666-1.224-2.582-1.734
							c-1.754-0.974-3.797,0.683-3.233,2.608c8.209,27.995,13.027,59.022,9.708,87.842"/>
					</g>
					<g>
						<path style="fill:#0C2647;" d="M403.457,365.875l-1.726-0.287c6.816-40.944,8.738-82.694,5.712-124.089l1.745-0.128
							C412.224,282.904,410.296,324.794,403.457,365.875z"/>
					</g>
				</g>
				<g>
					<g>
						<path style="fill:#FED74B;" d="M347.043,268.858c2.99,16.817,15.445,30.06,24.563,44.505
							c8.705,13.795,14.572,29.363,17.223,45.458c0.862,5.25,1.385,10.557,1.55,15.878c3.8-3.053,5.27-4.483,9.07-7.535
							c5.615-30.27-8.793-79.61-25.328-103.288c-3.352-4.8-6.79-8.545-10.167-10.863c-3.938-2.702-9.535-2.268-13.15,0.637
							C346.525,257.085,346.083,263.457,347.043,268.858z"/>
					</g>
					<g style="opacity:0.15;">
						<path style="fill:#0C2647;" d="M373.655,270.65c0.86,6.145,4.35,11.54,7.353,16.97c3,5.427,5.655,11.535,4.622,17.652
							c-0.75,4.435-3.397,8.493-3.45,12.99c-0.092,7.617,7.065,13.337,9.1,20.677c1.673,6.025-0.275,12.388-2.028,18.388
							c-0.145,0.495-0.287,0.992-0.425,1.492c0.862,5.25,1.385,10.557,1.55,15.878c3.8-3.053,5.27-4.483,9.07-7.535
							c5.615-30.27-8.793-79.61-25.328-103.288C373.508,266.073,373.345,268.43,373.655,270.65z"/>
					</g>
					<g>
						<path style="fill:#0C2647;" d="M394.438,361.033c-1.042-33.722-13.245-66.785-34.362-93.096l1.365-1.095
							c21.353,26.606,33.693,60.038,34.746,94.138L394.438,361.033z"/>
					</g>
				</g>
			</g>
			<g>
				<g>
					<path style="fill:#ED562B;" d="M368.803,347.747c-1.381,0-2.5,1.119-2.5,2.5V386.7c0,16.055,13.015,29.072,29.073,29.072
						c8.617,0,16.358-3.747,21.68-9.702c4.6-5.143,7.395-11.93,7.395-19.37v-36.453c0-1.381-1.119-2.5-2.5-2.5H368.803z"/>
				</g>
				<g style="opacity:0.15;">
					<path style="fill:#0C2647;" d="M366.303,353.813V386.7c0,16.055,13.015,29.072,29.073,29.072c8.617,0,16.358-3.747,21.68-9.702
						c-3.9-4.908-11.253-6.448-14.387-11.888c-2.307-4.008-1.842-9.443-5.04-12.788c-4.12-4.313-11.99-2.715-16.193-6.947
						c-3.6-3.622-2.79-9.678-4.992-14.283C374.62,356.358,370.483,354.03,366.303,353.813z"/>
				</g>
			</g>
		</g>
		<g>
			<g style="opacity:0.2;">
				<path style="fill:#ED7898;" d="M110.879,182.84c-1.588-0.512-2.647-1.979-2.643-3.648c0-0.01,0-0.021,0-0.031
					c0-7.395-6.051-13.378-13.472-13.266c-6.743,0.102-12.72,5.869-13.047,12.605c-0.166,3.417,0.962,6.566,2.936,9.002
					c1.833,2.262,2.418,5.288,1.539,8.063c-0.009,0.03-0.019,0.059-0.028,0.089c-0.654,2.099-2.036,3.918-3.928,5.038
					c-3.324,1.968-5.517,5.642-5.372,9.817c0.197,5.649,4.755,10.273,10.401,10.546c2.462,0.119,14.782,0.081,18.046,0.008
					c10.274-0.228,18.705-8.494,19.123-18.762C124.804,193.23,118.999,185.457,110.879,182.84z"/>
			</g>
			<g>
				<path style="fill:#72C9B9;" d="M108.832,220.542v6.495c0,5.002-0.562,9.97-1.67,14.815c-0.937,4.098-2.262,8.105-3.962,11.97
					c-0.308,0.705-0.63,1.405-0.965,2.1h-10.67c-4.343-9.01-6.6-18.883-6.6-28.885v-6.495H108.832z"/>
			</g>
			<g style="opacity:0.15;">
				<path style="fill:#0C2647;" d="M103.2,253.822c-0.308,0.705-0.63,1.405-0.965,2.1h-10.67c-4.343-9.01-6.6-18.883-6.6-28.885
					v-3.71c0.742,0.03,1.477,0.188,2.162,0.475c2.085,0.88,3.623,2.94,3.873,5.19c0.222,2.02-0.52,4.063-0.235,6.073
					c0.52,3.68,4.11,5.955,6.762,8.555C100.347,246.383,102.335,249.975,103.2,253.822z"/>
			</g>
		</g>
		<g>
			<g>
				<path style="fill:#FED74B;" d="M272.293,107.747c0,13.39-10.858,24.247-24.248,24.247c-7.24,0-13.74-3.173-18.18-8.205
					c-3.778-4.275-6.068-9.893-6.068-16.043c0-13.392,10.855-24.247,24.248-24.247c9.33,0,17.428,5.27,21.482,12.995
					C271.293,99.857,272.293,103.685,272.293,107.747z"/>
			</g>
			<g>
				<polygon style="fill:#0C2647;" points="242.177,117.155 240.76,116.128 247.104,107.378 247.104,94.191 248.854,94.191 
					248.854,107.945 				"/>
			</g>
			<g style="opacity:0.15;">
				<path style="fill:#0C2647;" d="M269.527,96.495c-1.922,1.782-3.762,3.662-6.182,4.592c-7.62,2.93-16.583-4.975-23.915-1.382
					c-3.74,1.832-5.603,6.12-6.398,10.207c-0.795,4.09-0.847,8.368-2.38,12.24c-0.22,0.558-0.485,1.105-0.787,1.638
					c-3.778-4.275-6.068-9.893-6.068-16.043c0-13.392,10.855-24.247,24.248-24.247C257.375,83.5,265.473,88.77,269.527,96.495z"/>
			</g>
		</g>
		<g>
			<g>
				<path style="fill:#ED562B;" d="M347.728,162.753v60.84c0,2.48-2.01,4.49-4.49,4.49h-93.62c-2.48,0-4.49-2.01-4.49-4.49v-60.84
					c0-2.48,2.01-4.49,4.49-4.49h93.62c1.03,0,1.98,0.348,2.738,0.933C347.04,160.015,347.728,161.303,347.728,162.753z"/>
			</g>
			<g>
				<path style="fill:#72C9B9;" d="M282.169,228.009l4.464,6.297c5.099,7.193,2.99,17.204-4.577,21.729l0,0h26.829l0.275-0.16
					c7.627-4.437,9.853-14.434,4.828-21.687l-4.28-6.179H282.169z"/>
			</g>
			<g style="opacity:0.15;">
				<path style="fill:#0C2647;" d="M347.728,186.042v37.55c0,2.48-2.01,4.49-4.49,4.49h-93.62c-2.48,0-4.49-2.01-4.49-4.49v-8.557
					c0.898-0.628,1.863-1.155,2.88-1.565c3.703-1.493,8.018-1.393,11.648,0.272c3.055,1.4,5.85,3.898,9.21,3.783
					c4.668-0.158,7.76-5.24,12.307-6.307c5.92-1.39,11.245,4.387,17.315,4.747c8.51,0.503,9.833-7.809,18.013-10.215
					c4.25-1.25,12.07,0.383,15.225-1.14c3.922-1.893,5.06-6.798,7.17-10.61C340.855,190.458,344.043,187.702,347.728,186.042z"/>
			</g>
			<g>
				<circle style="fill:#72C9B9;" cx="296.427" cy="193.173" r="5.5"/>
			</g>
		</g>
	</g>
</g>
<g id="DESIGNED_BY_FREEPIK">
	<g>
		<g id="XMLID_319_">
			<g id="XMLID_338_">
				<g id="XMLID_346_">
					<path style="fill:#112129;" d="M260.104,465.465c-0.432,0.443-0.803,0.931-1.108,1.453l-0.465-0.241
						c-0.067-0.298-0.349-0.503-0.659-0.466c-0.331,0.039-0.568,0.339-0.529,0.67s0.339,0.568,0.67,0.529
						c0.065-0.008,0.127-0.026,0.184-0.052l0.452,0.234c-0.251,0.554-0.433,1.139-0.539,1.744l0.746,0.132
						c0.23-1.306,0.85-2.507,1.792-3.473L260.104,465.465z"/>
				</g>
				<g id="XMLID_345_">
					<path style="fill:#112129;" d="M265.592,463.163c-0.171,0-0.341,0.006-0.51,0.017l-0.074-0.626
						c0.188-0.149,0.296-0.389,0.266-0.645c-0.046-0.393-0.402-0.674-0.795-0.628s-0.674,0.402-0.628,0.795
						c0.03,0.254,0.189,0.461,0.405,0.564l0.073,0.624c-0.714,0.116-1.403,0.332-2.06,0.646l0.327,0.684
						c0.934-0.447,1.942-0.673,2.995-0.673c0.496,0,0.993,0.053,1.475,0.158l0.161-0.741
						C266.693,463.222,266.142,463.163,265.592,463.163z"/>
				</g>
				<g id="XMLID_344_">
					<path style="fill:#112129;" d="M272.194,465.711c0.331-0.04,0.566-0.341,0.525-0.672c-0.04-0.331-0.341-0.566-0.672-0.526
						c-0.309,0.038-0.535,0.304-0.53,0.609l-0.416,0.363c-0.418-0.43-0.89-0.813-1.408-1.139l-0.404,0.641
						c1.134,0.715,2.021,1.726,2.563,2.925l0.69-0.313c-0.251-0.554-0.568-1.072-0.942-1.545l0.402-0.351
						C272.065,465.716,272.129,465.719,272.194,465.711z"/>
				</g>
				<g id="XMLID_343_">
					<path style="fill:#112129;" d="M265.044,473.372c-0.386,0.023-0.775,0.035-1.157,0.035c-0.88,0-1.733-0.061-2.478-0.179
						c-0.39-0.062-0.846-0.155-1.27-0.292c1.046,1.861,3.069,3.125,5.388,3.125c2.855,0,5.262-1.916,5.95-4.504
						c-0.682,0.449-1.505,0.825-2.459,1.123C267.839,473.047,266.464,473.286,265.044,473.372z"/>
				</g>
				<g id="XMLID_339_">
					<path style="fill:#112129;" d="M265.592,464.68c-3.352,0-6.08,2.666-6.08,5.943c0,0.426,0.046,0.849,0.137,1.261
						c0.673,0.483,2.706,0.89,5.347,0.731c2.879-0.173,5.297-0.957,6.672-2.159c-0.005-0.195-0.021-0.39-0.045-0.582
						C271.244,466.913,268.651,464.68,265.592,464.68z M263.432,471.194c-1.02,0-1.85-0.83-1.85-1.85c0-1.02,0.83-1.85,1.85-1.85
						c1.02,0,1.85,0.83,1.85,1.85C265.282,470.365,264.452,471.194,263.432,471.194z M268.17,470.286c-0.75,0-1.36-0.61-1.36-1.36
						s0.61-1.361,1.36-1.361c0.75,0,1.361,0.61,1.361,1.361S268.92,470.286,268.17,470.286z"/>
				</g>
			</g>
			<g id="XMLID_336_">
				<path style="fill:#112129;" d="M281.595,466.547c-0.295-0.116-0.806-0.309-1.382-0.237c-0.551,0.069-0.844,0.341-0.844,1.007
					v0.866h2.228v1.717h-2.228v5.455h-1.932v-5.455h-1.34v-1.717h1.34v-0.888c0-1.68,0.895-2.783,2.568-2.783
					c0.642,0,1.157,0.122,1.59,0.308L281.595,466.547z"/>
			</g>
			<g id="XMLID_334_">
				<path style="fill:#112129;" d="M286.298,469.879c-0.177-0.03-0.358-0.046-0.526-0.046c-0.896,0-1.51,0.548-1.51,1.614v3.908
					h-1.932v-7.172h1.873v0.785c0.451-0.673,1.14-0.977,2.021-0.977c0.414,0,0.848,0.128,1.094,0.337L286.298,469.879z"/>
			</g>
			<g id="XMLID_331_">
				<path style="fill:#112129;" d="M293.965,471.757c0,0.222-0.015,0.489-0.037,0.651h-5.085c0.207,1.036,0.933,1.488,1.843,1.488
					c0.622,0,1.295-0.252,1.813-0.688l1.133,1.243c-0.814,0.748-1.85,1.088-3.057,1.088c-2.198,0-3.723-1.495-3.723-3.753
					c0-2.258,1.48-3.797,3.626-3.797C292.544,467.99,293.958,469.522,293.965,471.757z M288.851,471.091h3.175
					c-0.178-0.918-0.733-1.436-1.562-1.436C289.554,469.655,289.021,470.203,288.851,471.091z"/>
			</g>
			<g id="XMLID_328_">
				<path style="fill:#112129;" d="M301.618,471.757c0,0.222-0.015,0.489-0.037,0.651h-5.085c0.207,1.036,0.932,1.488,1.843,1.488
					c0.622,0,1.295-0.252,1.813-0.688l1.132,1.243c-0.814,0.748-1.85,1.088-3.057,1.088c-2.198,0-3.723-1.495-3.723-3.753
					c0-2.258,1.48-3.797,3.627-3.797C300.197,467.99,301.611,469.522,301.618,471.757z M296.504,471.091h3.175
					c-0.178-0.918-0.733-1.436-1.562-1.436C297.207,469.655,296.674,470.203,296.504,471.091z"/>
			</g>
			<g id="XMLID_325_">
				<path style="fill:#112129;" d="M309.964,471.764c0,2.154-1.495,3.775-3.471,3.775c-0.962,0-1.643-0.378-2.109-0.933v3.708
					h-1.924v-10.133h1.887v0.792c0.466-0.585,1.155-0.984,2.139-0.984C308.469,467.99,309.964,469.61,309.964,471.764z
					 M304.287,471.764c0,1.132,0.747,1.976,1.843,1.976c1.14,0,1.85-0.881,1.85-1.976c0-1.095-0.711-1.976-1.85-1.976
					C305.035,469.788,304.287,470.632,304.287,471.764z"/>
			</g>
			<g id="XMLID_322_">
				<path style="fill:#112129;" d="M313.068,465.836c0,0.696-0.54,1.229-1.236,1.229c-0.696,0-1.229-0.533-1.229-1.229
					c0-0.696,0.533-1.243,1.229-1.243C312.527,464.592,313.068,465.14,313.068,465.836z M312.809,475.354h-1.932v-7.172h1.932
					V475.354z"/>
			</g>
			<g id="XMLID_320_">
				<path style="fill:#112129;" d="M316.032,470.736l2.702-2.554h2.368l-3.479,3.375l3.501,3.797h-2.376l-2.716-2.901v2.901H314.1
					v-10.658h1.932V470.736z"/>
			</g>
		</g>
		<g>
			<g>
				<path style="fill:#112129;" d="M184.412,475.289v-1.055c-0.527,0.718-1.391,1.23-2.387,1.23c-1.846,0-3.149-1.406-3.149-3.706
					c0-2.256,1.289-3.721,3.149-3.721c0.952,0,1.816,0.469,2.387,1.245v-3.765h1.099v9.77H184.412z M184.412,473.37v-3.208
					c-0.395-0.615-1.245-1.143-2.124-1.143c-1.421,0-2.27,1.172-2.27,2.739c0,1.567,0.85,2.724,2.27,2.724
					C183.168,474.483,184.017,473.986,184.412,473.37z"/>
			</g>
			<g>
				<path style="fill:#112129;" d="M186.932,471.744c0-2.051,1.465-3.706,3.486-3.706c2.139,0,3.398,1.67,3.398,3.794v0.279h-5.727
					c0.088,1.333,1.025,2.446,2.549,2.446c0.805,0,1.626-0.322,2.182-0.894l0.527,0.718c-0.703,0.703-1.655,1.084-2.812,1.084
					C188.44,475.465,186.932,473.956,186.932,471.744z M190.403,468.947c-1.509,0-2.256,1.274-2.314,2.358h4.643
					C192.718,470.25,192.015,468.947,190.403,468.947z"/>
			</g>
			<g>
				<path style="fill:#112129;" d="M194.607,474.351l0.571-0.791c0.469,0.542,1.362,1.011,2.329,1.011
					c1.084,0,1.67-0.513,1.67-1.216c0-1.714-4.38-0.659-4.38-3.281c0-1.098,0.952-2.036,2.636-2.036
					c1.201,0,2.051,0.454,2.622,1.026l-0.513,0.762c-0.424-0.513-1.201-0.894-2.109-0.894c-0.967,0-1.567,0.483-1.567,1.113
					c0,1.552,4.38,0.527,4.38,3.281c0,1.187-0.952,2.138-2.783,2.138C196.306,475.465,195.325,475.113,194.607,474.351z"/>
			</g>
			<g>
				<path style="fill:#112129;" d="M201.477,466.471c0-0.41,0.337-0.747,0.732-0.747c0.41,0,0.747,0.337,0.747,0.747
					c0,0.41-0.337,0.732-0.747,0.732C201.814,467.203,201.477,466.881,201.477,466.471z M201.667,475.289v-7.075h1.099v7.075
					H201.667z"/>
			</g>
			<g>
				<path style="fill:#112129;" d="M204.582,477.105l0.556-0.82c0.586,0.703,1.289,0.967,2.3,0.967c1.172,0,2.27-0.571,2.27-2.124
					v-1.011c-0.513,0.718-1.377,1.26-2.373,1.26c-1.845,0-3.149-1.377-3.149-3.662c0-2.27,1.289-3.677,3.149-3.677
					c0.952,0,1.802,0.469,2.373,1.245v-1.069h1.098v6.87c0,2.344-1.641,3.076-3.369,3.076
					C206.237,478.16,205.417,477.926,204.582,477.105z M209.709,473.253v-3.091c-0.381-0.615-1.23-1.143-2.109-1.143
					c-1.421,0-2.27,1.128-2.27,2.695c0,1.553,0.849,2.695,2.27,2.695C208.478,474.41,209.328,473.868,209.709,473.253z"/>
			</g>
			<g>
				<path style="fill:#112129;" d="M217.413,475.289v-4.629c0-1.245-0.63-1.641-1.582-1.641c-0.865,0-1.685,0.527-2.095,1.099v5.17
					h-1.099v-7.075h1.099v1.025c0.498-0.586,1.465-1.201,2.519-1.201c1.48,0,2.256,0.747,2.256,2.285v4.966H217.413z"/>
			</g>
			<g>
				<path style="fill:#112129;" d="M219.932,471.744c0-2.051,1.465-3.706,3.486-3.706c2.139,0,3.398,1.67,3.398,3.794v0.279h-5.727
					c0.088,1.333,1.025,2.446,2.549,2.446c0.806,0,1.626-0.322,2.183-0.894l0.527,0.718c-0.703,0.703-1.655,1.084-2.812,1.084
					C221.441,475.465,219.932,473.956,219.932,471.744z M223.404,468.947c-1.509,0-2.256,1.274-2.314,2.358h4.643
					C225.718,470.25,225.015,468.947,223.404,468.947z"/>
			</g>
			<g>
				<path style="fill:#112129;" d="M233.35,475.289v-1.055c-0.527,0.718-1.392,1.23-2.388,1.23c-1.846,0-3.149-1.406-3.149-3.706
					c0-2.256,1.289-3.721,3.149-3.721c0.952,0,1.817,0.469,2.388,1.245v-3.765h1.098v9.77H233.35z M233.35,473.37v-3.208
					c-0.396-0.615-1.245-1.143-2.124-1.143c-1.421,0-2.27,1.172-2.27,2.739c0,1.567,0.849,2.724,2.27,2.724
					C232.105,474.483,232.954,473.986,233.35,473.37z"/>
			</g>
			<g>
				<path style="fill:#112129;" d="M239.692,475.289v-9.77h1.098v3.765c0.572-0.776,1.421-1.245,2.388-1.245
					c1.845,0,3.149,1.465,3.149,3.721c0,2.299-1.304,3.706-3.149,3.706c-0.996,0-1.86-0.513-2.388-1.23v1.055H239.692z
					 M242.9,474.483c1.436,0,2.285-1.157,2.285-2.724c0-1.568-0.85-2.739-2.285-2.739c-0.864,0-1.728,0.527-2.109,1.143v3.208
					C241.171,473.986,242.036,474.483,242.9,474.483z"/>
			</g>
			<g>
				<path style="fill:#112129;" d="M247.528,477.061c0.161,0.073,0.425,0.117,0.601,0.117c0.483,0,0.805-0.161,1.055-0.747
					l0.469-1.069l-2.959-7.148h1.187l2.358,5.8l2.344-5.8h1.201l-3.545,8.51c-0.425,1.025-1.143,1.421-2.08,1.435
					c-0.234,0-0.601-0.044-0.806-0.103L247.528,477.061z"/>
			</g>
		</g>
	</g>
</g>
</svg>
